HIERARCHY
ROOT hip
{
  OFFSET 0.0 0.0 0.0
  CHANNELS 6 Xposition Yposition Zposition Zrotation Yrotation Xrotation
  JOINT torso
  {
    OFFSET 0.0 0.0 0.0
    CHANNELS 3 Zrotation Xrotation Yrotation
    JOINT neck
    {
      OFFSET -8.059630999999968 325.56260699999996 64.6221310000002
      CHANNELS 3 Zrotation Xrotation Yrotation
      JOINT head
      {
        OFFSET 34.685424000000125 375.1179809999999 232.79357900000002
        CHANNELS 3 Zrotation Xrotation Yrotation
        End Site
        {
          OFFSET 0.0 0.0 0.0
        }
      }
    }
    JOINT left_collar
    {
      OFFSET -8.059630999999968 325.56260699999996 64.6221310000002
      CHANNELS 3 Zrotation Xrotation Yrotation
      JOINT left_upper_arm
      {
        OFFSET -124.124665 -15.370300999999927 25.582641999999964
        CHANNELS 3 Zrotation Xrotation Yrotation
        JOINT left_forearm
        {
          OFFSET -268.19913399999996 105.06054699999993 114.74548300000004
          CHANNELS 3 Zrotation Xrotation Yrotation
          JOINT left_hand
          {
            OFFSET -235.82003099999991 -10.198180999999977 -38.67455999999993
            CHANNELS 3 Zrotation Xrotation Yrotation
            End Site
            {
              OFFSET 0.0 0.0 0.0
            }
          }
        }
      }
    }
    JOINT right_collar
    {
      OFFSET -8.059630999999968 325.56260699999996 64.6221310000002
      CHANNELS 3 Zrotation Xrotation Yrotation
      JOINT right_upper_arm
      {
        OFFSET 162.73931899999997 -2.8598030000000563 26.244994999999903
        CHANNELS 3 Zrotation Xrotation Yrotation
        JOINT right_forearm
        {
          OFFSET 284.6506340000001 103.07031299999994 145.84521499999994
          CHANNELS 3 Zrotation Xrotation Yrotation
          JOINT right_hand
          {
            OFFSET 226.332337 -12.198241999999937 -49.27258299999994
            CHANNELS 3 Zrotation Xrotation Yrotation
            End Site
            {
              OFFSET 0.0 0.0 0.0
            }
          }
        }
      }
    }
  }
}
MOTION
Frames: 14
Frame Time: 0.01
416.2549261458895 226.50125355678804 743.2247012072997 0.0875470406678379 -1.9541326914019872 -3.8030353612223338 0.14228719493199324 0.8620551188981093 -0.005840155407531138 -2.4951939098228055 1.1341755527425048 1.4307506191780683 0.0 0.0 0.0 0.4219427123900579 -0.23015482873706708 2.4938662861726786 0.5398649398564579 3.002533879763811 7.381402176644089 0.575506090821613 -0.15517399277798216 1.2529186486489743 0.0 0.0 0.0 0.28399578191691965 0.027953581090287477 4.87055272055883 2.058361572211777 0.3744627805479643 -3.76934485324299 2.5186600901569927 0.6088884471638822 1.9901625255019204 0.0 0.0 0.0
416.28462760368865 226.47529664253392 743.2022554664549 0.09617575908529355 -1.959326141615914 -3.8052084104017334 0.13988592997394053 0.8594883157852985 -0.0054476391176023235 -2.5039601394146205 1.1376192772630278 1.4357901530124517 0.0 0.0 0.0 0.4172380836814222 -0.23102741784714045 2.493945198321834 0.5257399206750593 2.9995319838485184 7.386421815812446 0.589503850939712 -0.1576986274176759 1.2543578420953099 0.0 0.0 0.0 0.30435773554439516 0.024067898521136034 4.8899582631274985 2.046188105252026 0.3819506995790855 -3.773944483028422 2.4514820423950976 0.5958391360581733 2.000707488585736 0.0 0.0 0.0
416.31555963681143 226.45119197250233 743.180532647285 0.10453614299898775 -1.9645943573282858 -3.8085630943305 0.1377131914759793 0.8567826335178129 -0.0051023470319986565 -2.5134064505917753 1.1416987852846905 1.4411807471830511 0.0 0.0 0.0 0.4125517544206508 -0.23200711092144558 2.494897010802709 0.509721979579477 2.995440215013449 7.3902352843692105 0.6085696384533167 -0.16130458361983147 1.2597260407131181 0.0 0.0 0.0 0.3241686997603492 0.020292800831782514 4.909663958146924 2.0371143521050468 0.38687062180769316 -3.7756107997770476 2.379185233191295 0.5816211074171909 2.0061526082098795 0.0 0.0 0.0
416.3476682683068 226.4291320744524 743.1583742556763 0.11274175770022925 -1.9699270058754983 -3.813125962052376 0.1357696444067631 0.8539828773936212 -0.004803250404153085 -2.5235728221614195 1.1461820512691008 1.4469718889525376 0.0 0.0 0.0 0.407940860818378 -0.233095766327753 2.496820092850502 0.4917775413341814 2.9902979894047452 7.392982979810874 0.631836749497984 -0.16578707470838974 1.2678931473281063 0.0 0.0 0.0 0.3430732391545525 0.01669699686390115 4.929360930955062 2.0309387038133333 0.3892682594995684 -3.7742071878997465 2.302881904529286 0.5664342046645707 2.0061263263380202 0.0 0.0 0.0
416.38084405277607 226.409256021416 743.134460368923 0.12092912762353275 -1.9753073976065445 -3.818872763286589 0.13405084695502265 0.8511381358532271 -0.004548236406352148 -2.5344796263224034 1.15078657360587 1.4532064436062373 0.0 0.0 0.0 0.403464046461741 -0.23429171070613272 2.4997871575539836 0.47196143731646295 2.9842004059226395 7.3948746397992196 0.658102167455985 -0.17086710861746432 1.2774305334852991 0.0 0.0 0.0 0.36073288714876517 0.013345958142206703 4.94872584615909 2.027249249260154 0.3893433444671746 -3.769744497956292 2.2240287446031166 0.5505511873604658 2.0004559827553035 0.0 0.0 0.0
416.4149084003415 226.39163646101306 743.107326194784 0.1292554957788131 -1.9807113049898295 -3.825720984053908 0.13254699877569126 0.8483011110002491 -0.004334076127883386 -2.5461225423461697 1.1551795556347477 1.4599175253025958 0.0 0.0 0.0 0.3991808492067982 -0.23558913964599246 2.5038395429051707 0.4504313772557327 2.9773047768537317 7.396193272142154 0.6858105380745884 -0.17618736800731422 1.2866070499219249 0.0 0.0 0.0 0.3768361026790362 0.01029990080304373 4.967425972621744 2.0254069035124953 0.3874664627046211 -3.76240431496777 2.1444379585869124 0.5343226280755787 1.9892062701108495 0.0 0.0 0.0
416.44960020857945 226.37626558476285 743.0753808718182 0.13789606371166707 -1.9861060247037248 -3.8335234967103617 0.13124277008759747 0.8455273945412137 -0.0041564092926830234 -2.55846787100957 1.1589790230634742 1.4671255166985997 0.0 0.0 0.0 0.395151145951708 -0.23697757673200695 2.5089820252580313 0.4274603416805401 2.9698361204031483 7.397298082268976 0.7130464591535454 -0.1813100221817769 1.2933902421392145 0.0 0.0 0.0 0.3911068706484145 0.007612002750375404 4.985123579308903 2.024534878444604 0.3841916468712577 -3.7525583478685762 2.066278533898198 0.5181803017610516 1.9727155076483012 0.0 0.0 0.0
416.4845632260701 226.3630403109907 743.0369280114301 0.14704076669126542 -1.9914497517643852 -3.842063658422434 0.1301172198812018 0.8428746920098225 -0.004009747330517989 -2.5714484883767064 1.1617559554826677 1.474835373039213 0.0 0.0 0.0 0.39143467248478503 -0.23844141814888903 2.5151784131347257 0.40344624954356245 2.962091296045068 7.398626179396753 0.7375364126792737 -0.1857170794326603 1.295453076247909 0.0 0.0 0.0 0.4033116444370578 0.005326923835150247 5.001479568313088 2.023515359776913 0.3802639229444752 -3.7407830600124465 1.9920661694233206 0.502638567614936 1.9516288030267053 0.0 0.0 0.0
416.51933451436236 226.35174706593568 742.9901874740196 0.15689064834329747 -1.9966913251085365 -3.851052164528773 0.12914380629890626 0.8404019968086166 -0.0038874954880372126 -2.5849606690622693 1.1630374985127392 1.4830343412223583 0.0 0.0 0.0 0.38809063194552956 -0.2399595913833821 2.522348176292387 0.3789183375982153 2.9544414698844217 7.400692818400344 0.7566614558532468 -0.18881391398161199 1.290186356147463 0.0 0.0 0.0 0.41326446159511593 0.0034796730248261294 5.01615636772596 2.020993959657452 0.3766211655139024 -3.727868895765714 1.924640459699816 0.48829315337630924 1.926927293655282 0.0 0.0 0.0
416.55333431290563 226.34204666235993 742.9333178816141 0.1676538986850402 -2.001770389834294 -3.8601259276503757 0.12829049595062628 0.8381687134124415 -0.003781995434048919 -2.598861993839259 1.1623113075804585 1.4916902156106664 0.0 0.0 0.0 0.38517740004015155 -0.24150535747778917 2.5303643654379724 0.3545398001217067 2.9473326198940177 7.404089927899378 0.7674815059464822 -0.18993658497209753 1.2747168693101676 0.0 0.0 0.0 0.4208301730405124 0.002094846235830953 5.0288202053057915 2.0153922138918796 0.3743897787530668 -3.7148236963535712 1.867128155715801 0.4758166816479209 1.8999527730477288 0.0 0.0 0.0
416.58585754904396 226.3334598860035 742.8644394045809 0.17954161121419468 -2.0066180032042826 -3.8688492096394107 0.12751998972953413 0.8362337261900479 -0.00368459195033488 -2.612970533422149 1.1590310562964308 1.500750239438628 0.0 0.0 0.0 0.38275233032969425 -0.24304628576217066 2.5390530671793634 0.331106371953895 2.941283831216203 7.409482692009392 0.7667717171001204 -0.18836349689774365 1.2459311473876902 0.0 0.0 0.0 0.4259258075681717 0.0011862426749177008 5.039142959408234 2.004928100186665 0.3748738873205938 -3.7028701267874977 1.8228916666983082 0.4659502415668427 1.8724270939704908 0.0 0.0 0.0
416.61606717486063 226.32535449796936 742.7816564251068 0.19276330176551285 -2.0111576893976792 -3.8767171800337 0.12679009664441748 0.8346544064303781 -0.0035857300551935577 -2.6270654673145897 1.1526231232358402 1.5101407422643431 0.0 0.0 0.0 0.38087166002789563 -0.2445444272222327 2.548194612261829 0.3095406882577515 2.9368831900953016 7.417603995030233 0.7510710707314326 -0.18333182441822546 1.2005045845221507 0.0 0.0 0.0 0.4285201511107221 0.0007568555633311538 5.046803833561115 1.9876442750755217 0.37953789763157736 -3.6934371460686894 1.7954624163976325 0.4594903221326752 1.846465778564783 0.0 0.0 0.0
416.64298945785674 226.31693443436293 742.6830797705148 0.20752221853854 -2.015306921620415 -3.883162008884378 0.12605430017984426 0.8334855449740128 -0.0034750915020082974 -2.6408892519682308 1.1424944501152352 1.5197675791474177 0.0 0.0 0.0 0.3795905143103652 -0.24595670744274908 2.557526708952973 0.2908824172492094 2.934781161430829 7.429246602794854 0.7167428978658538 -0.1740589355400378 1.1349355361738707 0.0 0.0 0.0 0.42863166133601677 0.0007992236668252806 5.051491122173791 1.9614434662212965 0.38998247959354404 -3.688145736102214 1.7884592114837383 0.4572705014193726 1.824585238128403 0.0 0.0 0.0
416.6655113091118 226.30723202162145 742.5668483068073 0.22401046389085896 -2.018978980443543 -3.8875615213195744 0.1252625702484928 0.8327781924108657 -0.003341781330882182 -2.6541513965170007 1.1280415386532527 1.5295174067926178 0.0 0.0 0.0 0.3789630018485437 -0.24723555277813183 2.566749605791725 0.27627433382066047 2.9356814282671113 7.44525303666875 0.6600466309294587 -0.1597687954570962 1.0455839377690357 0.0 0.0 0.0 0.42632487057472346 0.001296121661608121 5.052904323687368 1.9241302159479559 0.4079142231156142 -3.688789248377482 1.805492400276482 0.4601374433152192 1.8097029002286116 0.0 0.0 0.0
